<svg xmlns="http://www.w3.org/2000/svg" viewBox="0 0 400 280" role="img" aria-labelledby="t">
  <title id="t">Web application illustration</title>
  <defs>
    <linearGradient id="wbg" x1="0%" y1="0%" x2="100%" y2="100%">
      <stop offset="0%" style="stop-color:#e0f2fe"/>
      <stop offset="100%" style="stop-color:#ddd6fe"/>
    </linearGradient>
    <linearGradient id="bar" x1="0%" y1="0%" x2="100%" y2="0%">
      <stop offset="0%" style="stop-color:#3b82f6"/>
      <stop offset="100%" style="stop-color:#06b6d4"/>
    </linearGradient>
  </defs>
  <rect width="400" height="280" fill="url(#wbg)" rx="16"/>
  <rect x="40" y="48" width="320" height="196" rx="10" fill="#fff" stroke="#cbd5e1" stroke-width="2"/>
  <rect x="40" y="48" width="320" height="36" rx="10" fill="url(#bar)"/>
  <circle cx="62" cy="66" r="6" fill="#fecaca"/>
  <circle cx="84" cy="66" r="6" fill="#fde68a"/>
  <circle cx="106" cy="66" r="6" fill="#bbf7d0"/>
  <rect x="56" y="104" width="120" height="80" rx="8" fill="#bfdbfe" opacity="0.9"/>
  <rect x="192" y="104" width="152" height="12" rx="4" fill="#94a3b8" opacity="0.5"/>
  <rect x="192" y="124" width="128" height="12" rx="4" fill="#94a3b8" opacity="0.35"/>
  <rect x="192" y="144" width="144" height="12" rx="4" fill="#94a3b8" opacity="0.35"/>
  <rect x="56" y="196" width="288" height="32" rx="6" fill="#c4b5fd" opacity="0.65"/>
  <ellipse cx="292" cy="138" rx="52" ry="52" fill="none" stroke="#2563eb" stroke-width="4" opacity="0.35"/>
  <ellipse cx="292" cy="138" rx="52" ry="18" fill="none" stroke="#2563eb" stroke-width="3" opacity="0.45"/>
  <line x1="240" y1="138" x2="344" y2="138" stroke="#2563eb" stroke-width="3" opacity="0.4"/>
  <circle cx="292" cy="138" r="8" fill="#f59e0b"/>
</svg>
