<svg xmlns="http://www.w3.org/2000/svg" viewBox="0 0 400 280" role="img" aria-labelledby="t">
  <title id="t">Software development illustration</title>
  <defs>
    <linearGradient id="bg1" x1="0%" y1="0%" x2="100%" y2="100%">
      <stop offset="0%" style="stop-color:#ecfdf5"/>
      <stop offset="100%" style="stop-color:#cffafe"/>
    </linearGradient>
    <linearGradient id="screen" x1="0%" y1="0%" x2="0%" y2="100%">
      <stop offset="0%" style="stop-color:#34d399"/>
      <stop offset="100%" style="stop-color:#059669"/>
    </linearGradient>
    <linearGradient id="accent" x1="0%" y1="0%" x2="100%" y2="0%">
      <stop offset="0%" style="stop-color:#fbbf24"/>
      <stop offset="50%" style="stop-color:#f472b6"/>
      <stop offset="100%" style="stop-color:#818cf8"/>
    </linearGradient>
  </defs>
  <rect width="400" height="280" fill="url(#bg1)" rx="16"/>
  <rect x="48" y="40" width="304" height="200" rx="12" fill="#1e293b" opacity="0.92"/>
  <rect x="58" y="52" width="284" height="168" rx="6" fill="url(#screen)"/>
  <rect x="72" y="68" width="88" height="10" rx="3" fill="url(#accent)" opacity="0.95"/>
  <rect x="72" y="88" width="140" height="8" rx="2" fill="#fff" opacity="0.35"/>
  <rect x="72" y="104" width="120" height="8" rx="2" fill="#fff" opacity="0.25"/>
  <rect x="72" y="128" width="256" height="72" rx="6" fill="#0f172a" opacity="0.45"/>
  <text x="200" y="172" text-anchor="middle" font-family="ui-monospace,monospace" font-size="28" fill="#a7f3d0" font-weight="700">&lt;/&gt;</text>
  <circle cx="320" cy="72" r="22" fill="#fbbf24" opacity="0.9"/>
  <circle cx="100" cy="210" r="18" fill="#f472b6" opacity="0.85"/>
  <rect x="260" y="188" width="56" height="56" rx="10" fill="#818cf8" opacity="0.9" transform="rotate(-8 288 216)"/>
</svg>
