<svg xmlns="http://www.w3.org/2000/svg" viewBox="0 0 400 280" role="img" aria-labelledby="t">
  <title id="t">Mobile application illustration</title>
  <defs>
    <linearGradient id="mbg" x1="0%" y1="0%" x2="100%" y2="100%">
      <stop offset="0%" style="stop-color:#fef3c7"/>
      <stop offset="100%" style="stop-color:#fce7f3"/>
    </linearGradient>
    <linearGradient id="phone" x1="0%" y1="0%" x2="100%" y2="100%">
      <stop offset="0%" style="stop-color:#6366f1"/>
      <stop offset="100%" style="stop-color:#8b5cf6"/>
    </linearGradient>
    <linearGradient id="ui1" x1="0%" y1="0%" x2="100%" y2="0%">
      <stop offset="0%" style="stop-color:#22d3ee"/>
      <stop offset="100%" style="stop-color:#34d399"/>
    </linearGradient>
  </defs>
  <rect width="400" height="280" fill="url(#mbg)" rx="16"/>
  <rect x="158" y="32" width="84" height="216" rx="16" fill="url(#phone)"/>
  <rect x="166" y="48" width="68" height="148" rx="6" fill="#0f172a"/>
  <rect x="174" y="60" width="52" height="14" rx="3" fill="url(#ui1)"/>
  <rect x="174" y="82" width="52" height="8" rx="2" fill="#64748b"/>
  <rect x="174" y="96" width="36" height="8" rx="2" fill="#64748b" opacity="0.7"/>
  <rect x="174" y="118" width="24" height="24" rx="6" fill="#fbbf24"/>
  <rect x="206" y="118" width="24" height="24" rx="6" fill="#f472b6"/>
  <rect x="174" y="150" width="52" height="36" rx="6" fill="#38bdf8" opacity="0.9"/>
  <rect x="182" y="204" width="36" height="4" rx="2" fill="#e2e8f8" opacity="0.5"/>
  <circle cx="90" cy="100" r="28" fill="#f97316" opacity="0.85"/>
  <circle cx="310" cy="180" r="36" fill="#22d3ee" opacity="0.5"/>
  <path d="M48 200 Q120 160 180 200 T320 188" fill="none" stroke="#a78bfa" stroke-width="6" stroke-linecap="round" opacity="0.6"/>
</svg>
